# AST/ASF file generated using VICON BodyLanguage
# -----------------------------------------------
:version 1.10
:name VICON
:units
  mass 1.0
  length 0.45
  angle deg
:documentation
   .ast/.asf automatically generated from VICON data using
   VICON BodyBuilder and BodyLanguage model FoxedUp or BRILLIANT.MOD
:root
   order TX TY TZ RX RY RZ
   axis XYZ
   position 0 0 0  
   orientation 0 0 0 
:bonedata
  begin
     id 1 
     name lhipjoint
     direction 0.578396 -0.714046 0.394458 
     length 2.21935 
     axis 0 0 0  XYZ
  end
  begin
     id 2 
     name lfemur
     direction 0.34202 -0.939693 0  
     length 6.39105  
     axis 0 0 20  XYZ
    dof rx ry rz
    limits (-160.0 20.0)
           (-70.0 70.0)
           (-60.0 70.0)
  end
  begin
     id 3 
     name ltibia
     direction 0.34202 -0.939693 0   
     length 6.99037   
     axis 0 0 20   XYZ
    dof rx
    limits (-10.0 170.0)
  end
  begin
     id 4 
     name lfoot
     direction 0.0582372 -0.160005 0.985397   
     length 2.06111   
     axis -90 7.62852e-016 20   XYZ
    dof rx rz
    limits (-45.0 90.0)
           (-70.0 20.0)
  end
  begin
     id 5 
     name ltoes
     direction 1.53556e-011 -4.21875e-011 1   
     length 1.04074   
     axis -90 7.62852e-016 20   XYZ
    dof rx
    limits (-90.0 20.0)
  end
  begin
     id 6 
     name rhipjoint
     direction -0.558179 -0.726269 0.40121   
     length 2.182  
     axis 0 0 0  XYZ 
  end
  begin
     id 7 
     name rfemur
     direction -0.34202 -0.939693 0   
     length 6.51172   
     axis 0 0 -20   XYZ
    dof rx ry rz
    limits (-160.0 20.0)
           (-70.0 70.0)
           (-70.0 60.0)
  end
  begin
     id 8 
     name rtibia
     direction -0.34202 -0.939693 0   
     length 7.02607   
     axis 0 0 -20   XYZ
    dof rx
    limits (-10.0 170.0)
 end
 begin
     id 9 
     name rfoot
     direction -0.0788856 -0.216737 0.973038   
     length 1.96734  
     axis -90 -7.62852e-016 -20   XYZ
    dof rx rz
    limits (-45.0 90.0)
           (-20.0 70.0)
  end
  begin
     id 10 
     name rtoes
     direction -1.53567e-011 -4.21783e-011 1   
     length 0.990825   
     axis -90 -7.62852e-016 -20   XYZ
    dof rx
    limits (-90.0 20.0)
  end
  begin
     id 11 
     name lowerback
     direction 0.00668177 0.999323 -0.0361741   
     length 1.7655   
     axis 0 0 0   XYZ
    dof rx ry rz
    limits (-20.0 45.0)
           (-30.0 30.0)
           (-30.0 30.0)
  end
  begin
     id 12 
     name upperback
     direction -0.00222086 0.99851 0.0545167   
     length 1.74912   
     axis 0 0 0   XYZ
    dof rx ry rz
    limits (-20.0 45.0)
           (-30.0 30.0)
           (-30.0 30.0)
  end
  begin
     id 13 
     name thorax
     direction -0.00733971 0.997496 0.0703443   
     length 1.75715   
     axis 0 0 0   XYZ
    dof rx ry rz
    limits (-20.0 45.0)
           (-30.0 30.0)
           (-30.0 30.0)
  end
  begin
     id 14 
     name lowerneck
     direction 0.0279797 0.994795 0.0979765   
     length 1.46939   
     axis 0 0 0   XYZ
    dof rx ry rz
    limits (-20.0 45.0)
           (-30.0 30.0)
           (-30.0 30.0)
  end
  begin
     id 15 
     name upperneck
     direction 0.00339187 0.976776 -0.214238   
     length 1.48018   
     axis 0 0 0   XYZ
    dof rx ry rz
    limits (-20.0 45.0)
           (-30.0 30.0)
           (-30.0 30.0)
  end
  begin
     id 16
     name head
     direction -0.00263506 0.996603 -0.0823096  
     length 1.4976  
     axis 0 0 0   XYZ
    dof rx ry rz
    limits (-20.0 45.0)
           (-30.0 30.0)
           (-30.0 30.0)
  end
  begin
     id 17 
     name lclavicle
     direction 0.894044 0.44508 -0.0508781  
     length 3.03024  
     axis 0 0 0   XYZ
    dof ry rz
    limits (-20.0 10.0)
           (0.0 20.0)
  end
  begin
     id 18 
     name lhumerus
     direction 1 -4.48961e-011 -2.39475e-018   
     length 4.4661   
     axis 180 -30 -90   XYZ
    dof rx ry rz
    limits (-60.0 90.0)
           (-90.0 90.0)
           (-90.0 90.0)
  end
  begin
     id 19
     name lradius
     direction 1 -4.48961e-011 9.29328e-028   
     length 3.41414   
     axis 180 -30 -90   XYZ
    dof rx
    limits (-10.0 170.0)
  end
  begin
     id 20
     name lwrist
     direction 1 -4.48985e-011 1.53461e-026   
     length 1.70707   
     axis -1.09697e-014 90 90   XYZ
    dof ry
    limits (-180.0 0.0)
 end
  begin
     id 21 
     name lhand
     direction 1 -4.48966e-011 3.06923e-026   
     length 0.328298   
     axis -1.95843e-014 90 90   XYZ
    dof rx rz
    limits (-90.0 90.0)
           (-45.0 45.0)
  end
  begin
     id 22 
     name lfingers
     direction 1 -4.48893e-011 6.13845e-026   
     length 0.264682   
     axis -3.91686e-014 90 90   XYZ
    dof rx
    limits (0.0 90.0)
  end
  begin
     id 23
     name lthumb
     direction 0.707107 -6.34876e-011 0.707107   
     length 0.380032   
     axis -90 45 2.85299e-015   XYZ
    dof rx rz
    limits (-45.0 45.0)
           (-45.0 45.0)
  end
  begin
     id 24 
     name rclavicle
     direction -0.936955 0.347862 -0.0332887   
     length 3.26927  
     axis 0 0 0   XYZ 
    dof ry rz
    limits (-10.0 20.0)
           (-20.0 0.0)
  end
  begin
     id 25 
     name rhumerus
     direction -1 -4.4896e-011 1.78637e-018  
     length 4.40431   
     axis 180 30 90   XYZ
    dof rx ry rz
    limits (-90.0 60.0)
           (-90.0 90.0)
           (-90.0 90.0)
  end
  begin
     id 26 
     name rradius
     direction -1 -4.48955e-011 9.34036e-027   
     length 3.04688   
     axis 180 30 90   XYZ
    dof rx
    limits (-10.0 170.0)
  end
  begin
     id 27 
     name rwrist
     direction -1 -4.49011e-011 1.53461e-026   
     length 1.52344   
     axis -1.09697e-014 -90 -90   XYZ
    dof ry
    limits (-180.0 0.0)
  end
  begin
     id 28
     name rhand
     direction -1 -4.48834e-011 3.06923e-026   
     length 0.500489   
     axis -1.95843e-014 -90 -90   XYZ
    dof rx rz
    limits (-90.0 90.0)
           (-45.0 45.0)
  end
  begin
     id 29
     name rfingers
     direction -1 -4.48967e-011 6.13845e-026   
     length 0.403507   
     axis -3.91686e-014 -90 -90   XYZ
    dof rx
    limits (0.0 90.0)
  end
  begin
     id 30
     name rthumb
     direction -0.707107 -6.34826e-011 0.707107   
     length 0.579358   
     axis -90 -45 -2.85299e-015   XYZ
    dof rx rz
    limits (-45.0 45.0)
           (-45.0 45.0)
  end
:hierarchy
  begin
    root lhipjoint rhipjoint lowerback
    lhipjoint lfemur
    lfemur ltibia
    ltibia lfoot
    lfoot ltoes
    rhipjoint rfemur
    rfemur rtibia
    rtibia rfoot
    rfoot rtoes
    lowerback upperback
    upperback thorax
    thorax lowerneck lclavicle rclavicle
    lowerneck upperneck
    upperneck head
    lclavicle lhumerus
    lhumerus lradius
    lradius lwrist
    lwrist lhand lthumb
    lhand lfingers
    rclavicle rhumerus
    rhumerus rradius
    rradius rwrist
    rwrist rhand rthumb
    rhand rfingers
  end

#!OML:ASF H:\IndianDance\Patient Classification 1\Patient 1\Session 1\dancer.ASF
:FULLY-SPECIFIED
:DEGREES
1404
root 0.480349 15.1972 -7.45316 910.927 -122.328 -186.696
lowerback 10.8524 1.72629 -2.56497
upperback -7.38417 1.96381 0.922847
thorax -14.4491 1.20951 2.02331
lowerneck -10.378 14.0348 13.7649
upperneck 18.2956 16.6348 0.456872
head 8.54979 8.83522 -0.0870217
rclavicle -3.18304e-014 -1.03368e-014
rhumerus -24.9631 -30.0915 -5.11158
rradius 86.0077
rwrist -66.3185
rhand -36.3785 11.2919
rfingers 7.12502
rthumb -9.47503 -18.4751
lclavicle -3.18304e-014 -1.03368e-014
lhumerus 23.2254 -61.6799 -4.82184
lradius 113.967
lwrist 0.127917
lhand -56.9835 7.36142
lfingers 7.12502
lthumb -29.2757 -324.923
rfemur -19.9246 -17.4584 24.295
rtibia 43.7428
rfoot -1.27739 -42.7008
rtoes 60.4577
lfemur -56.3298 31.0249 -15.3129
ltibia 87.3671
lfoot 24.815 -14.175
ltoes 26.9837
1405
root 0.459115 15.2067 -7.47763 911.842 -123.131 -188.318
lowerback 11.7159 1.56664 -2.36595
upperback -7.36044 1.82678 1.37824
thorax -14.97 1.1628 2.43915
lowerneck -10.3081 14.0283 13.7772
upperneck 18.1923 16.6088 0.573792
head 8.49181 8.8337 -0.0649263
rclavicle 1.22501e-014 2.94201e-014
rhumerus -23.8995 -33.528 -3.13597
rradius 81.8079
rwrist -72.6739
rhand -34.5767 6.68407
rfingers 7.12502
rthumb -7.73623 -23.1544
lclavicle 1.22501e-014 2.94201e-014
lhumerus 24.8074 -62.1273 -6.01483
lradius 115.254
lwrist -1.17184
lhand -57.4639 6.02176
lfingers 7.12502
lthumb -29.7343 -326.343
rfemur -18.9544 -18.3594 25.3136
rtibia 42.8567
rfoot -0.612792 -42.5109
rtoes 60.7081
lfemur -59.0224 32.5138 -14.9039
ltibia 92.0215
lfoot 28.6449 -15.1023
ltoes 28.657
1406
root 0.437681 15.2166 -7.49558 912.625 -123.77 -189.864
lowerback 12.5617 1.44834 -2.16054
upperback -7.30554 1.7509 1.80381
thorax -15.4469 1.14265 2.81235
lowerneck -10.3521 14.0321 13.8146
upperneck 18.2486 16.5679 0.72155
head 8.50735 8.83058 -0.0226842
rclavicle 2.74323e-014 -1.70955e-014
rhumerus -22.7388 -36.9991 -1.39176
rradius 77.5115
rwrist -79.1638
rhand -33.1718 3.0673
rfingers 7.12502
rthumb -6.3801 -26.8166
lclavicle 2.74323e-014 -1.70955e-014
lhumerus 26.195 -62.5189 -7.00633
lradius 116.398
lwrist -2.34592
lhand -57.8208 4.84028
lfingers 7.12502
lthumb -30.0749 -327.586
rfemur -17.8981 -19.1869 26.2179
rtibia 41.9608
rfoot -0.129397 -42.1534
rtoes 60.9384
lfemur -61.5233 34.2185 -14.4762
ltibia 96.8105
lfoot 32.0701 -16.1764
ltoes 29.5833
1407
root 0.415591 15.226 -7.50731 913.263 -124.267 -191.252
lowerback 13.3326 1.36148 -1.9987
upperback -7.22982 1.70963 2.18046
thorax -15.8546 1.13966 3.15357
lowerneck -10.507 14.0457 13.8713
upperneck 18.4312 16.5141 0.891312
head 8.58492 8.82555 0.0363736
rclavicle -3.41413e-014 4.77083e-015
rhumerus -21.5236 -40.5025 0.128753
rradius 73.1265
rwrist -85.3754
rhand -32.2062 0.52686
rfingers 7.12502
rthumb -5.44784 -29.3831
lclavicle -3.41413e-014 4.77083e-015
lhumerus 27.3904 -62.8755 -7.84109
lradius 117.403
lwrist -3.35708
lhand -58.1308 3.99745
lfingers 7.12502
lthumb -30.3707 -328.483
rfemur -16.8213 -19.944 26.9764
rtibia 41.0845
rfoot 0.362071 -41.7354
rtoes 61.1963
lfemur -63.8928 36.1944 -14.1275
ltibia 101.694
lfoot 35.0756 -17.3553
ltoes 29.9558
1408
root 0.393343 15.2342 -7.51407 913.857 -124.616 -192.524
lowerback 13.9832 1.30911 -1.87289
upperback -7.14872 1.70662 2.51067
thorax -16.1822 1.15425 3.45757
lowerneck -10.7041 14.066 13.9725
upperneck 18.6484 16.4612 1.02297
head 8.68967 8.82057 0.0830726
rclavicle 1.39149e-013 5.56597e-015
rhumerus -20.2869 -44.0035 1.42768
rradius 68.6758
rwrist -90.7943
rhand -31.57 -0.931168
rfingers 7.12502
rthumb -4.83357 -30.856
lclavicle 1.39149e-013 5.56597e-015
lhumerus 28.4067 -63.2157 -8.57003
lradius 118.271
lwrist -4.22591
lhand -58.4908 3.63827
lfingers 7.12502
lthumb -30.714 -328.906
rfemur -15.8082 -20.5545 27.6428
rtibia 40.2529
rfoot 0.838549 -41.3181
rtoes 61.4562
lfemur -66.2153 38.5306 -13.879
ltibia 106.627
lfoot 37.7259 -18.5862
ltoes 30.0485
1409
root 0.370671 15.2421 -7.5167 914.437 -124.824 -193.66
lowerback 14.4737 1.29371 -1.80453
upperback -7.07507 1.73781 2.78919
thorax -16.4201 1.18589 3.72889
lowerneck -10.8883 14.0881 14.1048
upperneck 18.8181 16.4185 1.09579
head 8.78472 8.8164 0.10582
rclavicle 7.50412e-015 1.27222e-014
rhumerus -19.0672 -47.4487 2.52583
rradius 64.236
rwrist -94.9184
rhand -31.0795 -1.58317
rfingers 7.12502
rthumb -4.35992 -31.5183
lclavicle 7.50412e-015 1.27222e-014
lhumerus 29.2802 -63.5585 -9.24277
lradius 119
lwrist -4.98419
lhand -58.9039 3.91509
lfingers 7.12502
lthumb -31.1077 -328.704
rfemur -14.9169 -20.986 28.228
rtibia 39.4738
rfoot 1.28058 -40.917
rtoes 61.682
lfemur -68.5432 41.2979 -13.7885
ltibia 111.542
lfoot 40.0875 -19.8683
ltoes 30.1737
1410
root 0.347288 15.2507 -7.516 915.014 -124.9 -194.64
lowerback 14.7859 1.31619 -1.81166
upperback -7.01802 1.79836 3.01534
thorax -16.5679 1.23403 3.97627
lowerneck -11.0028 14.1075 14.2638
upperneck 18.8755 16.3952 1.0885
head 8.83931 8.8143 0.0923403
rclavicle 9.23852e-014 4.57205e-014
rhumerus -17.9006 -50.7501 3.45134
rradius 59.9067
rwrist -97.4319
rhand -30.5737 -1.71914
rfingers 7.12502
rthumb -3.87152 -31.6637
lclavicle 9.23852e-014 4.57205e-014
lhumerus 30.0268 -63.9064 -9.86918
lradius 119.605
lwrist -5.60482
lhand -59.3451 4.54051
lfingers 7.12502
lthumb -31.5282 -328.16
rfemur -14.1817 -21.231 28.7354
rtibia 38.7517
rfoot 1.70099 -40.5685
rtoes 61.8749
lfemur -70.912 44.5551 -13.9087
ltibia 116.367
lfoot 42.215 -21.2657
ltoes 30.4364
1411
root 0.323225 15.2615 -7.5125 915.559 -124.86 -195.418
lowerback 14.9236 1.37565 -1.91807
upperback -6.98015 1.88009 3.18521
thorax -16.6317 1.2972 4.20982
lowerneck -11.0388 14.1232 14.4364
upperneck 18.8109 16.3934 1.0081
head 8.84657 8.81477 0.045583
rclavicle 3.90115e-014 9.14409e-015
rhumerus -16.8134 -53.8351 4.22411
rradius 55.7999
rwrist -98.2486
rhand -29.992 -1.66309
rfingers 7.12502
rthumb -3.30978 -31.6171
lclavicle 3.90115e-014 9.14409e-015
lhumerus 30.6753 -64.2526 -10.4626
lradius 120.097
lwrist -6.08541
lhand -59.7782 5.19075
lfingers 7.12502
lthumb -31.9406 -327.591
rfemur -13.6094 -21.3117 29.1426
rtibia 38.0851
rfoot 2.09716 -40.2671
rtoes 62.036
lfemur -73.3472 48.3254 -14.3085
ltibia 121.027
lfoot 44.1237 -22.8767
ltoes 30.8432
1412
root 0.29768 15.2741 -7.50756 916.06 -124.724 -196.021
lowerback 14.9225 1.47055 -2.12806
upperback -6.95276 1.98126 3.30976
thorax -16.6249 1.37597 4.44458
lowerneck -11.0375 14.1364 14.594
upperneck 18.6611 16.4061 0.888892
head 8.82036 8.81621 -0.01624
rclavicle 9.22858e-014 -1.59028e-015
rhumerus -15.8588 -56.556 4.88601
rradius 52.024
rwrist -97.5824
rhand -29.3751 -1.60265
rfingers 7.12502
rthumb -2.71399 -31.5651
lclavicle 9.22858e-014 -1.59028e-015
lhumerus 31.2369 -64.5519 -11.0039
lradius 120.51
lwrist -6.3716
lhand -60.1342 5.50924
lfingers 7.12502
lthumb -32.2796 -327.341
rfemur -13.166 -21.2379 29.4641
rtibia 37.4731
rfoot 2.45282 -40.0327
rtoes 62.1623
lfemur -75.8537 52.6633 -14.9755
ltibia 125.475
lfoot 45.782 -24.8401
ltoes 31.3255
1413
root 0.270989 15.2885 -7.50102 916.447 -124.513 -196.408
lowerback 14.8309 1.59345 -2.4487
upperback -6.93144 2.08953 3.37958
thorax -16.5724 1.4651 4.67729
lowerneck -11.0042 14.1459 14.7331
upperneck 18.4468 16.4245 0.762253
head 8.76538 8.81754 -0.0825592
rclavicle 1.32192e-014 -4.37326e-015
rhumerus -15.0986 -58.7648 5.48529
rradius 48.6698
rwrist -95.8248
rhand -28.798 -1.74644
rfingers 7.12502
rthumb -2.15663 -31.7153
lclavicle 1.32192e-014 -4.37326e-015
lhumerus 31.7878 -64.8448 -11.5822
lradius 120.792
lwrist -6.81635
lhand -60.524 6.26463
lfingers 7.12502
lthumb -32.6506 -326.662
rfemur -12.8111 -21.0695 29.6564
rtibia 36.9203
rfoot 2.7727 -39.8491
rtoes 62.2699
lfemur -78.4178 57.5564 -15.9513
ltibia 129.66
lfoot 47.1076 -27.1453
ltoes 31.8374
